<svg xmlns="http://www.w3.org/2000/svg" width="32" height="32" viewBox="0 0 32 32">
  <g id="ic_ThietLap" transform="translate(12354 16583)">
    <rect id="Rectangle_18117" data-name="Rectangle 18117" width="32" height="32" transform="translate(-12354 -16583)" fill="#fff" opacity="0"/>
    <g id="Group_30131" transform="translate(-13788.725 -19572.74)">
      <g id="Group_26678" transform="translate(1431.325 2985.44)">
        <g id="Group_26677">
          <path id="Path_59323" d="M29.6,17.2h0l-1.1-.1a6.9,6.9,0,0,0-.4-1l.7-.8a2.1,2.1,0,0,0,0-2.6L27,10.9a2.1,2.1,0,0,0-2.6,0l-.8.7a10.375,10.375,0,0,0-1-.4l-.1-1.1a1.936,1.936,0,0,0-1.8-1.8H18.1a1.936,1.936,0,0,0-1.8,1.8l-.1,1.1a6.9,6.9,0,0,0-1,.4l-.8-.7a2.1,2.1,0,0,0-2.6,0L10,12.7a2.1,2.1,0,0,0,0,2.6l.7.8a10.375,10.375,0,0,0-.4,1l-1.1.1A1.936,1.936,0,0,0,7.4,19v2.6a1.936,1.936,0,0,0,1.8,1.8l1.1.1a6.9,6.9,0,0,0,.4,1l-.7.8a2.1,2.1,0,0,0,0,2.6l1.8,1.8a2.1,2.1,0,0,0,2.6,0l.8-.7a3,3,0,0,0,1,.4l.1,1.1a1.936,1.936,0,0,0,1.8,1.8h2.6a1.936,1.936,0,0,0,1.8-1.8l.1-1.1a6.9,6.9,0,0,0,1-.4l.8.7a2.1,2.1,0,0,0,2.6,0l1.8-1.8a2.1,2.1,0,0,0,0-2.6l-.7-.8a10.375,10.375,0,0,0,.4-1l1-.1a1.936,1.936,0,0,0,1.8-1.8V19A1.706,1.706,0,0,0,29.6,17.2Zm.9,4.4a1.063,1.063,0,0,1-1,.9l-1.3.2c-.2,0-.3.1-.4.3a4.235,4.235,0,0,1-.6,1.4.446.446,0,0,0,0,.5L28,26a1.059,1.059,0,0,1,.1,1.3L26.3,29a.935.935,0,0,1-1.3-.1l-1-.8a.446.446,0,0,0-.5,0c-.4.2-.9.4-1.4.6-.2.1-.3.2-.3.4l-.2,1.3a1.063,1.063,0,0,1-.9,1H18.1a1.063,1.063,0,0,1-.9-1L17.1,29c0-.2-.1-.3-.3-.4a4.235,4.235,0,0,1-1.4-.6.446.446,0,0,0-.5,0l-1.1,1a1.059,1.059,0,0,1-1.3.1l-1.8-1.8a.935.935,0,0,1,.1-1.3l.8-1.1a.446.446,0,0,0,0-.5c-.2-.4-.4-.9-.6-1.4-.1-.2-.2-.3-.4-.3l-1.3-.2a1.063,1.063,0,0,1-1-.9V19a1.063,1.063,0,0,1,1-.9l1.3-.2c.2,0,.3-.1.4-.3a4.235,4.235,0,0,1,.6-1.4.446.446,0,0,0,0-.5l-.8-1.1a1.059,1.059,0,0,1-.1-1.3l1.8-1.8a.935.935,0,0,1,1.3.1l1.1.8a.446.446,0,0,0,.5,0c.4-.2.9-.4,1.4-.6.2-.1.3-.2.3-.4l.2-1.3a1.063,1.063,0,0,1,.9-1h2.6a1.063,1.063,0,0,1,.9,1l.2,1.3c0,.2.1.3.3.4a4.235,4.235,0,0,1,1.4.6.446.446,0,0,0,.5,0l1.1-.8a1.059,1.059,0,0,1,1.3-.1l1.8,1.8a.935.935,0,0,1-.1,1.3l-.8,1.1a.446.446,0,0,0,0,.5c.2.4.4.9.6,1.4.1.2.2.3.4.3l1.3.2h0a1.063,1.063,0,0,1,1,.9Z" fill="#fff" stroke="#fff" stroke-width="0.5"/>
        </g>
      </g>
      <g id="Ellipse_67" transform="translate(1442 2997)">
        <circle id="Ellipse_2102" data-name="Ellipse 2102" cx="5" cy="5" r="5" transform="translate(3.8 3.8)" fill="none"/>
        <circle id="Ellipse_2103" data-name="Ellipse 2103" cx="4.3" cy="4.3" r="4.3" transform="translate(4.5 4.5)" fill="none" stroke="#eebd00" stroke-width="1.5"/>
      </g>
    </g>
  </g>
</svg>
