<svg id="Layer_1" data-name="Layer 1" xmlns="http://www.w3.org/2000/svg" xmlns:xlink="http://www.w3.org/1999/xlink" viewBox="0 0 56 56"><defs><linearGradient id="linear-gradient" x1="-326.01" y1="-39.58" x2="-324.96" y2="-40.69" gradientTransform="matrix(56, 0, 0, -56, 18255, -2220)" gradientUnits="userSpaceOnUse"><stop offset="0" stop-color="#287cea"/><stop offset="1" stop-color="#8726f2"/></linearGradient></defs><title>ic_ThietBi_56</title><g id="Group_33313" data-name="Group 33313"><rect id="Rectangle_17426" data-name="Rectangle 17426" width="56" height="56" rx="10" style="fill:url(#linear-gradient)"/><g id="ic_In_Fill" data-name="ic In Fill"><g id="Group_33280" data-name="Group 33280"><path id="Path_63154" data-name="Path 63154" d="M18.38,20.67a1.38,1.38,0,0,0,1.37-1.38V18.18a.27.27,0,0,1,.27-.26H36a.27.27,0,0,1,.27.26h0v1.11a1.38,1.38,0,1,0,2.75,0V18.18a3,3,0,0,0-3-3H20a3,3,0,0,0-3,3v1.11A1.38,1.38,0,0,0,18.38,20.67Z" style="fill:#fff"/><path id="Path_63155" data-name="Path 63155" d="M39.92,21.58H16.08A5.51,5.51,0,0,0,10.58,27v7.88A1.37,1.37,0,0,0,12,36.25h4.12v4.13a1.37,1.37,0,0,0,1.38,1.37H38.54a1.37,1.37,0,0,0,1.38-1.37V36.25H44a1.37,1.37,0,0,0,1.38-1.37V27A5.51,5.51,0,0,0,39.92,21.58ZM37.17,39H18.83V33.5H37.17Zm2.75-10.54a1.84,1.84,0,1,1,1.83-1.83,1.83,1.83,0,0,1-1.83,1.83Z" style="fill:#fff"/><path id="Path_63156" data-name="Path 63156" d="M6,6H50V50H6Z" style="fill:none"/><path id="Path_63157" data-name="Path 63157" d="M6,6H50V50H6Z" style="fill:none"/></g></g></g></svg>