<svg xmlns="http://www.w3.org/2000/svg" width="32" height="32" viewBox="0 0 32 32">
  <g id="ic_ThietBi" transform="translate(12354 16583)">
    <rect id="Rectangle_18117" data-name="Rectangle 18117" width="32" height="32" transform="translate(-12354 -16583)" fill="#fff" opacity="0"/>
    <g id="_3419" data-name="3419" transform="translate(-12350 -16605.938)">
      <g id="Group_30851" data-name="Group 30851" transform="translate(0 27.937)">
        <path id="Path_70677" data-name="Path 70677" d="M22.551,27.937H1.449A1.451,1.451,0,0,0,0,29.386v14.57A1.451,1.451,0,0,0,1.449,45.4H8.68v1.054a1.755,1.755,0,0,1-1.753,1.753H5.334a.553.553,0,0,0,0,1.107H18.666a.553.553,0,0,0,0-1.107H17.073a1.755,1.755,0,0,1-1.753-1.753V45.4h7.231A1.451,1.451,0,0,0,24,43.956V29.386A1.45,1.45,0,0,0,22.551,27.937ZM9.184,48.211a2.844,2.844,0,0,0,.6-1.753V45.4h4.427v1.054a2.844,2.844,0,0,0,.6,1.753Zm13.71-4.256a.343.343,0,0,1-.342.342H1.449a.343.343,0,0,1-.342-.342V41.048H22.894v2.908Zm0-4.014H1.107V29.386a.343.343,0,0,1,.342-.342h21.1a.343.343,0,0,1,.342.342V39.941Z" transform="translate(0 -27.937)" fill="#fff" stroke="#fff" stroke-width="0.5"/>
        <circle id="Ellipse_485" data-name="Ellipse 485" cx="0.597" cy="0.597" r="0.597" transform="translate(11.403 14.139)" fill="#fff" stroke="#fff" stroke-width="0.5"/>
        <path id="Path_70678" data-name="Path 70678" d="M177.529,105.959a.553.553,0,0,0-.782,0l-3.91,3.91a.553.553,0,0,0,.782.782l3.91-3.91A.553.553,0,0,0,177.529,105.959Z" transform="translate(-164.58 -102.148)" fill="#0dd469" stroke="#0dd469" stroke-width="0.5"/>
        <path id="Path_70679" data-name="Path 70679" d="M274.8,154.3a.553.553,0,0,0-.782,0l-1.558,1.558a.553.553,0,1,0,.782.782l1.558-1.558A.553.553,0,0,0,274.8,154.3Z" transform="translate(-259.535 -148.221)" fill="#0dd469" stroke="#0dd469" stroke-width="0.5"/>
      </g>
    </g>
  </g>
</svg>
