<svg id="Layer_1" data-name="Layer 1" xmlns="http://www.w3.org/2000/svg" viewBox="0 0 32 32"><g id="Group_33236" data-name="Group 33236"><circle id="Ellipse_5591" data-name="Ellipse 5591" cx="16" cy="16" r="16" style="fill:#e5e6eb"></circle><g id="enter"><path id="Path_63134" data-name="Path 63134" d="M12.79,16.12H5.57A.59.59,0,0,1,5,15.54.57.57,0,0,1,5.57,15h7.22a.57.57,0,0,1,.57.57A.58.58,0,0,1,12.79,16.12Z" style="fill:#5f656f"></path><path id="Path_63135" data-name="Path 63135" d="M9.94,19a.57.57,0,0,1-.57-.58.56.56,0,0,1,.17-.4L12,15.58,9.54,13.13a.57.57,0,0,1,.8-.81l2.85,2.85a.58.58,0,0,1,0,.81l-2.85,2.85A.54.54,0,0,1,9.94,19Z" style="fill:#5f656f"></path><path id="Path_63136" data-name="Path 63136" d="M17.29,25.24a1.56,1.56,0,0,1-1.65-1.44V10.87a1.47,1.47,0,0,1,1.12-1.36l5-1.44a1.65,1.65,0,0,1,2.1,1,1.35,1.35,0,0,1,.08.36V22.36a1.47,1.47,0,0,1-1.12,1.37l-5,1.43a1.58,1.58,0,0,1-.53.07Zm5-16.16a.39.39,0,0,0-.15,0l-4.95,1.43a.37.37,0,0,0-.28.34V23.8a.43.43,0,0,0,.56.34l4.95-1.43a.38.38,0,0,0,.28-.35V9.44a.38.38,0,0,0-.41-.36Z" style="fill:#5f656f"></path><path id="Path_63137" data-name="Path 63137" d="M11.65,11.8a.57.57,0,0,1-.57-.57h0V10.09A2.09,2.09,0,0,1,13.17,8h8.55a.57.57,0,0,1,0,1.14H13.17a1,1,0,0,0-.95.95v1.14A.58.58,0,0,1,11.65,11.8Z" style="fill:#5f656f"></path><path id="Path_63138" data-name="Path 63138" d="M16.21,23h-3a2.1,2.1,0,0,1-2.09-2.09V19.73a.58.58,0,0,1,.57-.58.57.57,0,0,1,.57.57h0v1.14a1,1,0,0,0,.95.95h3a.56.56,0,0,1,.57.57.57.57,0,0,1-.57.57Z" style="fill:#5f656f"></path></g></g></svg>